<svg width="515" height="395" viewBox="0 0 515 395" fill="none" xmlns="http://www.w3.org/2000/svg">
<path d="M515 261H0V263H515V261Z" fill="white"/>
<path d="M482 130H1V133H482V130Z" fill="white"/>
<path d="M452 0H1V3H452V0Z" fill="white"/>
<path d="M440 0H438V392H440V0Z" fill="white"/>
<path d="M294 0H292V392H294V0Z" fill="white"/>
<path d="M149 0H146V358H149V0Z" fill="white"/>
<path d="M3 1H0V316H3V1Z" fill="white"/>
<path d="M293.863 1.3562H1.39749V131.712H293.863V1.3562Z" fill="black"/>
<path d="M1.39749 121.685V262.069L153.48 126.699L1.39749 121.685Z" fill="black"/>
<path d="M293.864 126.699V131.713L291.958 133.401L288.115 136.81C213.36 139.066 152.979 192.612 150.254 259.011L146.828 262.052L146.795 262.069V121.685L293.864 126.699Z" fill="black"/>
<path d="M293.028 133.384C292.677 133.384 292.309 133.384 291.958 133.401C212.441 133.902 147.814 191.259 146.828 262.052C146.795 262.62 146.795 263.172 146.795 263.74C146.795 335.62 212.391 394.096 293.028 394.096C373.665 394.096 439.261 335.62 439.261 263.74C439.261 191.86 373.665 133.384 293.028 133.384ZM293.028 390.754C214.246 390.754 150.137 333.782 150.137 263.74C150.137 262.153 150.171 260.582 150.254 259.011C152.979 192.612 213.36 139.066 288.115 136.81C289.736 136.743 291.373 136.726 293.028 136.726C371.81 136.726 435.919 193.699 435.919 263.74C435.919 333.782 371.81 390.754 293.028 390.754Z" fill="white"/>
<path d="M212.808 262.096L204.452 262.049C204.456 261.306 205.794 187.712 291.275 182.608L291.772 190.949C214.247 195.578 212.83 259.382 212.808 262.096Z" fill="white"/>
<path d="M377.391 260.398C377.069 250.872 374.835 241.509 370.821 232.864C366.807 224.219 361.096 216.47 354.027 210.077C337.409 194.923 315.685 186.597 293.195 186.763H293.027C247.119 186.763 209.649 219.636 208.664 260.398C208.63 260.949 208.63 261.517 208.63 262.069C208.63 283.394 218.608 302.663 234.617 316.367C250.965 330.102 271.677 337.551 293.027 337.375H293.195C339.655 337.291 377.425 303.549 377.425 262.069C377.425 261.517 377.425 260.949 377.391 260.398Z" fill="white"/>
<path d="M354.028 210.077L351.521 212.3L237.124 314.145L234.618 316.367C218.608 302.663 208.63 283.394 208.63 262.069C208.63 261.517 208.63 260.949 208.664 260.398C209.649 219.636 247.119 186.763 293.027 186.763H293.195C315.685 186.597 337.409 194.923 354.028 210.077Z" fill="black"/>
</svg>
