<svg width="26" height="41" viewBox="0 0 26 41" fill="none" xmlns="http://www.w3.org/2000/svg">
<path d="M0 0V40.6958H26V39.5651H1.13044V35.0436H24.8697V40.6958H26V0H0ZM1.13034 1.13074H24.8696V3.39142H1.13034V1.13074ZM1.13034 4.52186H24.8696V33.9133H1.13034V4.52186ZM10.1741 9.60904V13.0002H6.78253V16.3917H3.39142V28.8265H15.8263V25.435H19.2178V22.0439H22.6089V9.60904H10.1741ZM11.3044 10.7394H21.4783V20.9133H11.3044V10.7394ZM7.91328 14.1305H10.174V22.0438H18.0868V24.3044H7.91287L7.91328 14.1305ZM4.52176 17.522H6.78243V25.4349H14.6957V27.696H4.52176V17.522ZM10.174 36.7395V37.8702H15.8261V36.7395H13.0001H10.174Z" fill="#B6F214"/>
</svg>
