<svg width="42" height="35" viewBox="0 0 42 35" fill="none" xmlns="http://www.w3.org/2000/svg">
<path d="M7.76323 0.671287C7.51756 0.701872 7.33638 0.915298 7.34602 1.16263V4.49863H2.58018C1.26839 4.49863 0.197266 5.56975 0.197266 6.88155V32.6171C0.197266 33.9289 1.26839 35 2.58018 35H38.8006C40.1124 35 41.1835 33.9289 41.1835 32.6171V6.88155C41.1835 5.56975 40.1124 4.49863 38.8006 4.49863H34.0347V1.16263C34.04 1.02267 33.9839 0.887367 33.8805 0.79262C33.7771 0.697874 33.6375 0.653662 33.4985 0.671278C33.2532 0.701863 33.072 0.915289 33.0816 1.16262V4.49862H10.6822C10.5549 4.49696 10.4319 4.54616 10.3411 4.63592C10.25 4.72535 10.1988 4.84769 10.1988 4.97534C10.1988 5.103 10.25 5.225 10.3411 5.31476C10.4319 5.40419 10.5549 5.45372 10.6822 5.45173H33.0816V7.83465C33.0796 7.96231 33.1292 8.08531 33.2186 8.17606C33.3083 8.26715 33.4304 8.31802 33.558 8.31802C33.6857 8.31802 33.808 8.26715 33.8974 8.17606C33.9872 8.08531 34.0364 7.96231 34.0347 7.83465V5.45173H38.8006C39.6007 5.45173 40.2304 6.08137 40.2304 6.88157V32.6171C40.2304 33.4173 39.6008 34.0466 38.8006 34.0466H2.58019C1.78002 34.0466 1.15036 33.4173 1.15036 32.6171V6.88157C1.15036 6.08139 1.77999 5.45173 2.58019 5.45173H7.34603V7.83465C7.34437 7.96231 7.39357 8.08531 7.48333 8.17606C7.57276 8.26715 7.6951 8.31802 7.82275 8.31802C7.95041 8.31802 8.07242 8.26715 8.16217 8.17606C8.2516 8.08531 8.30113 7.96231 8.29914 7.83465V1.16265C8.30479 1.02269 8.24828 0.887384 8.14522 0.792637C8.04184 0.697891 7.90221 0.653679 7.76325 0.671295L7.76323 0.671287ZM28.7474 9.2498C28.5529 9.26708 28.3884 9.40139 28.3325 9.58856C28.277 9.77572 28.3408 9.97784 28.4941 10.0988L30.4152 11.6926C19.2197 12.4672 11.4336 19.4779 9.2668 29.6539C9.21959 29.7838 9.2309 29.9281 9.29805 30.0488C9.3652 30.1698 9.48155 30.2556 9.61686 30.2842C9.75216 30.3124 9.89312 30.2805 10.0032 30.1967C10.1132 30.113 10.1817 29.9856 10.1903 29.8477C12.267 20.0956 19.5399 13.4719 30.2664 12.6609L28.4942 14.1352C28.3742 14.2057 28.2911 14.325 28.2665 14.462C28.2419 14.599 28.2785 14.7396 28.3665 14.8476C28.4543 14.9553 28.585 15.0191 28.7243 15.0225C28.8632 15.0258 28.9968 14.9683 29.0899 14.8649L31.9496 12.482C32.0573 12.3916 32.1195 12.2579 32.1195 12.117C32.1195 11.9763 32.0573 11.8427 31.9496 11.7523L29.0899 9.36934C28.9959 9.2859 28.8729 9.24302 28.7475 9.25L28.7474 9.2498ZM12.1112 9.26476C10.5378 9.26476 9.25187 10.5506 9.25187 12.1244C9.25187 13.6978 10.5377 14.9838 12.1112 14.9838C13.685 14.9838 14.9709 13.6979 14.9709 12.1244C14.9709 10.5507 13.685 9.26476 12.1112 9.26476ZM12.1112 10.2178C13.1697 10.2178 14.0177 11.0659 14.0177 12.1243C14.0177 13.1828 13.1697 14.0305 12.1112 14.0305C11.0528 14.0305 10.205 13.1828 10.205 12.1243C10.205 11.0659 11.0528 10.2178 12.1112 10.2178ZM27.3619 17.3666C25.7885 17.3666 24.5026 18.6524 24.5026 20.2263C24.5026 21.7997 25.7884 23.0859 27.3619 23.0859C28.9356 23.0859 30.2216 21.7998 30.2216 20.2263C30.2216 18.6525 28.9357 17.3666 27.3619 17.3666ZM27.3619 18.32C28.4204 18.32 29.2684 19.1677 29.2684 20.2262C29.2684 21.2846 28.4204 22.1324 27.3619 22.1324C26.3034 22.1324 25.4557 21.2846 25.4557 20.2262C25.4557 19.1677 26.3034 18.32 27.3619 18.32ZM15.8643 24.5007C15.6788 24.5187 15.5209 24.6433 15.4601 24.8192C15.3989 24.9954 15.4464 25.1909 15.5814 25.3198L17.6216 27.3749L15.5814 29.4155C15.4916 29.5059 15.4418 29.6289 15.4428 29.7562C15.4438 29.8839 15.4956 30.0059 15.5867 30.095C15.6778 30.1841 15.8008 30.2333 15.9285 30.2316C16.0561 30.23 16.1778 30.1774 16.2662 30.0857L18.3068 28.0451L20.3473 30.0857C20.5325 30.2729 20.8343 30.2752 21.0228 30.091C21.2113 29.9068 21.2153 29.605 21.0321 29.4155L18.9919 27.375L21.0321 25.3199C21.1758 25.1816 21.218 24.9685 21.1385 24.786C21.0587 24.6031 20.8739 24.4894 20.6748 24.5007C20.5504 24.5054 20.4328 24.5589 20.3473 24.6497L18.3068 26.6899L16.2662 24.6497C16.1635 24.539 16.0142 24.4838 15.8643 24.5007L15.8643 24.5007Z" fill="#B6F214"/>
</svg>
