<svg width="40" height="34" viewBox="0 0 40 34" fill="none" xmlns="http://www.w3.org/2000/svg">
<path d="M20.0047 29.5853C26.0813 29.583 31.0124 24.6423 31.009 18.5657C31.0066 12.4894 26.071 7.55804 19.9945 7.56145C13.9182 7.56377 8.98258 12.499 8.98513 18.5759C8.98778 24.6519 13.9277 29.5878 20.0047 29.5853ZM19.9957 8.51383C25.5575 8.5115 30.0544 13.0046 30.057 18.5666C30.0593 24.1283 25.5655 28.6304 20.0042 28.6329C14.4428 28.6352 9.94045 24.1367 9.93789 18.5751C9.93557 13.0133 14.4337 8.51553 19.9957 8.51383Z" fill="#B6F214"/>
<path d="M34.0547 10.4459C35.1648 10.4456 36.0636 9.52152 36.0632 8.40681C36.0629 7.28903 35.1627 6.36429 34.0526 6.36497C32.9425 6.3653 32.0437 7.29073 32.044 8.40876C32.0447 9.52313 32.9445 10.4466 34.0547 10.4459ZM34.0533 7.3176C34.6386 7.31727 35.1106 7.79227 35.111 8.40774C35.1113 9.01727 34.6396 9.49363 34.0543 9.49388C33.4691 9.49388 32.997 9.01756 32.9967 8.40868C32.9964 7.79251 33.468 7.31752 34.0533 7.31752V7.3176Z" fill="#B6F214"/>
<path d="M3.7684 33.9774L36.2395 33.9635C38.3089 33.9625 40.0006 32.2359 40 30.1383L39.9904 6.99116C39.9894 4.8932 38.2967 3.16794 36.2269 3.16862L10.9743 3.17925V2.91252C10.974 1.5922 9.91005 0.494069 8.59704 0.494324L5.23521 0.495652C3.92186 0.495985 2.8546 1.59378 2.85528 2.91581V3.29581C1.21607 3.71168 -0.00101977 5.22532 6.41154e-07 7.00772L0.00963341 30.1549C0.0102978 32.2521 1.69901 33.9784 3.76806 33.9774L3.7684 33.9774ZM5.23592 1.44847L8.59774 1.44714C9.37966 1.44681 10.0221 2.09985 10.0221 2.9133V3.18003L3.80794 3.18235V2.91563C3.80794 2.10415 4.454 1.44845 5.23592 1.44845V1.44847ZM3.32894 4.1699C3.37478 4.17024 3.42028 4.16359 3.46413 4.15097C3.55946 4.14034 3.65744 4.13469 3.7561 4.13469L10.4213 4.1317C10.4728 4.14034 10.5246 4.14034 10.5761 4.1317L36.2275 4.12108C37.7674 4.12074 39.0376 5.40356 39.0387 6.99166L39.048 30.1388C39.0483 31.7266 37.7798 33.0107 36.2395 33.011L3.7684 33.025C2.22852 33.0253 0.963298 31.7431 0.962278 30.1544L0.952977 7.00722C0.952645 5.57032 1.99601 4.38214 3.32926 4.16955L3.32894 4.1699Z" fill="#B6F214"/>
<path d="M32.2305 30.8175H32.2438L34.6915 30.8165C35.029 30.8165 35.31 30.8079 35.5701 30.7591C35.8305 30.7099 36.0896 30.6076 36.2842 30.408C36.6748 30.009 36.6904 29.4752 36.6904 28.7352L36.6884 23.6448C36.6921 23.382 36.4818 23.1658 36.2188 23.1618H36.2048C35.9421 23.1661 35.7318 23.3824 35.7358 23.6448L35.7378 28.7352C35.7381 29.4281 35.6474 29.6971 35.6029 29.7423C35.581 29.7646 35.5405 29.7951 35.393 29.8234C35.2449 29.8516 35.0077 29.8642 34.6905 29.8649L32.2428 29.8659C31.98 29.8622 31.7638 30.0725 31.7598 30.3356C31.7565 30.598 31.9674 30.8142 32.2305 30.8175L32.2305 30.8175Z" fill="#B6F214"/>
<path d="M15.142 19.0557C15.4047 19.0593 15.621 18.8491 15.625 18.586V18.5727C15.624 16.1543 17.5755 14.2004 19.9992 14.1994C20.2619 14.2031 20.4782 13.9928 20.4822 13.7297C20.4858 13.467 20.2756 13.2508 20.0125 13.2468H19.9992C17.0612 13.2481 14.6716 15.639 14.6729 18.573C14.6686 18.8361 14.8789 19.0524 15.1419 19.0557L15.142 19.0557Z" fill="#B6F214"/>
</svg>
