<svg width="42" height="37" viewBox="0 0 42 37" fill="none" xmlns="http://www.w3.org/2000/svg">
<path d="M18.2908 0.000200105H3.71512C2.14544 0.000200105 0.912109 1.23353 0.912109 2.80322V34.197C0.912109 35.7667 2.14544 37 3.71512 37H18.2908C19.8605 37 21.0938 35.7667 21.0938 34.197V33.0195L21.0934 19.8453V2.80301C21.0934 1.23333 19.8601 0 18.2904 0L18.2908 0.000200105ZM5.95754 1.12131H16.0484V1.68207C16.0484 2.01837 15.8243 2.24283 15.4876 2.24283H6.51778C6.18148 2.24283 5.95702 2.01876 5.95702 1.68207L5.95754 1.12131ZM19.9726 33.0196V34.1971C19.9726 35.1501 19.2437 35.879 18.2907 35.879H3.71503C2.76205 35.879 2.03312 35.1501 2.03312 34.1971L2.03351 2.80332C2.03351 1.85034 2.76241 1.12141 3.71542 1.12141H4.83652V1.68217C4.83652 2.63514 5.56543 3.36408 6.51843 3.36408H15.4883C16.4413 3.36408 17.1702 2.63517 17.1702 1.68217V1.12141H18.2913C19.2443 1.12141 19.9732 1.85031 19.9732 2.80332V19.8456L19.9726 33.0196Z" fill="#B6F214"/>
<path d="M29.6826 6.31405L33.0518 2.94482L33.8445 3.73748L30.4753 7.1067L29.6826 6.31405Z" fill="#B6F214"/>
<path d="M37.2393 18.9487H41.2756V20.0698H37.2393V18.9487Z" fill="#B6F214"/>
<path d="M29.6357 33.7167L30.4652 32.9624L33.2557 36.0317L32.4262 36.786L29.6357 33.7167Z" fill="#B6F214"/>
<path d="M32.5308 13.0063L22.7765 7.40022V8.68951L30.7371 13.2867L22.7765 17.8834V19.1727L31.4096 14.1833V26.1802L22.7765 31.1696V32.4593L32.5308 26.8533V13.0063Z" fill="#B6F214"/>
<path d="M8.53621 26.8532L18.2908 32.4593V31.1696L9.65771 26.1802V14.1833L18.2908 19.1727V17.8834L10.3302 13.2867L18.2908 8.68951V7.40022L8.53621 13.0063V26.8532Z" fill="#B6F214"/>
</svg>
