<svg width="40" height="35" viewBox="0 0 40 35" fill="none" xmlns="http://www.w3.org/2000/svg">
<path d="M37.3728 21.4635H23.3744C23.1805 21.4635 23.0234 21.3061 23.0234 21.1125V17.4284C23.0234 17.2344 23.1808 17.0774 23.3744 17.0774H37.3728C37.5667 17.0774 37.7238 17.2348 37.7238 17.4284V21.1125C37.7238 21.3061 37.5664 21.4635 37.3728 21.4635ZM23.7246 20.7612H37.0217V17.7793H23.7246V20.7612Z" fill="#B6F214"/>
<path d="M37.0316 13.2338H23.3734C23.1795 13.2338 23.0225 13.0764 23.0225 12.8828V11.5083C23.0225 11.3144 23.1798 11.1573 23.3734 11.1573H37.0325C37.2264 11.1573 37.3834 11.3147 37.3834 11.5083V12.8828C37.3831 13.0764 37.2257 13.2338 37.0318 13.2338H37.0316ZM23.7245 12.5319H36.6814V11.8593L23.7245 11.859V12.5319Z" fill="#B6F214"/>
<path d="M37.0316 15.9211H23.3734C23.1795 15.9211 23.0225 15.7637 23.0225 15.5701V14.1956C23.0225 14.0016 23.1798 13.8446 23.3734 13.8446H37.0325C37.2264 13.8446 37.3834 14.002 37.3834 14.1956V15.5701C37.3831 15.764 37.2257 15.9211 37.0318 15.9211H37.0316ZM23.7245 15.2191H36.6814V14.5465H23.7245V15.2191Z" fill="#B6F214"/>
<path d="M26.2779 9.87551H24.4884C24.363 9.87551 24.2468 9.80858 24.1848 9.69986L23.2902 8.14999C23.2275 8.04126 23.2275 7.90741 23.2902 7.79901L24.1848 6.24914C24.2474 6.14042 24.3637 6.07349 24.4884 6.07349H26.2779C26.4033 6.07349 26.5195 6.14042 26.5815 6.24914L27.4761 7.79901C27.5388 7.90773 27.5388 8.04159 27.4761 8.14999L26.5815 9.69986C26.5188 9.80858 26.4029 9.87551 26.2779 9.87551ZM24.6908 9.17355H26.0755L26.7673 7.97498L26.0755 6.77641H24.6908L23.999 7.97498L24.6908 9.17355Z" fill="#B6F214"/>
<path d="M30.3735 9.87551C29.3254 9.87551 28.4727 9.02272 28.4727 7.97468C28.4727 6.92664 29.3251 6.07385 30.3735 6.07385C31.4219 6.07385 32.2743 6.92664 32.2743 7.97468C32.2737 9.02272 31.4212 9.87551 30.3735 9.87551ZM30.3735 6.77611C29.7127 6.77611 29.1749 7.31385 29.1749 7.97468C29.1749 8.63552 29.7123 9.17325 30.3735 9.17325C31.035 9.17325 31.5721 8.63584 31.5721 7.97468C31.5721 7.31352 31.0343 6.77611 30.3735 6.77611Z" fill="#B6F214"/>
<path d="M35.7877 30.2571H0.351305C0.157369 30.2571 0.000326493 30.0998 0.000326493 29.9061L0 4.74035C0 4.54641 0.157368 4.38937 0.350979 4.38937H4.44618C4.64011 4.38937 4.79716 4.54674 4.79716 4.74035C4.79716 4.93428 4.63979 5.09132 4.44618 5.09132H0.702275V29.5542H35.4366V25.8603C35.4366 25.6663 35.594 25.5093 35.7876 25.5093C35.9815 25.5093 36.1385 25.6667 36.1385 25.8603V29.9052C36.1385 30.0992 35.9812 30.2565 35.7876 30.2565L35.7877 30.2571Z" fill="#B6F214"/>
<path d="M34.3444 28.8637H1.79324C1.5993 28.8637 1.44226 28.7064 1.44226 28.5128V6.13275C1.44226 5.93881 1.59963 5.78177 1.79324 5.78177H4.44531C4.63924 5.78177 4.79629 5.93914 4.79629 6.13275C4.79629 6.32668 4.63892 6.48373 4.44531 6.48373H2.1442V28.1616H33.9932V25.8605C33.9932 25.6666 34.1506 25.5096 34.3442 25.5096C34.5382 25.5096 34.6952 25.6669 34.6952 25.8605V28.5126C34.6952 28.7069 34.5382 28.8636 34.3442 28.8636L34.3444 28.8637Z" fill="#B6F214"/>
<path d="M36.9962 26.2117H4.44506C4.25112 26.2117 4.09408 26.0544 4.09408 25.8608L4.09375 3.48159C4.09375 3.28766 4.25112 3.13062 4.44473 3.13062H7.0968C7.29073 3.13062 7.44778 3.28798 7.44778 3.48159C7.44778 3.67553 7.29041 3.83257 7.0968 3.83257H4.79569V25.5097H36.6447V23.2085C36.6447 23.0146 36.8021 22.8576 36.9957 22.8576C37.1897 22.8576 37.3467 23.0149 37.3467 23.2085V25.8606C37.347 26.0549 37.1897 26.2119 36.996 26.2119L36.9962 26.2117Z" fill="#B6F214"/>
<path d="M39.6493 23.5596H7.09811C6.90417 23.5596 6.74713 23.4023 6.74713 23.2087V0.829494C6.74713 0.635558 6.9045 0.478516 7.09811 0.478516H39.6493C39.8432 0.478516 40.0002 0.635884 40.0002 0.829494V23.2087C40.0006 23.4023 39.8432 23.5596 39.6496 23.5596H39.6493ZM7.44916 22.8574H39.2982V1.18028H7.44916V22.8574Z" fill="#B6F214"/>
<path d="M20.3369 33.684H15.8023C15.6083 33.684 15.4513 33.5266 15.4513 33.333V29.9051C15.4513 29.7112 15.6087 29.5541 15.8023 29.5541H20.3369C20.5309 29.5541 20.6879 29.7115 20.6879 29.9051V33.3327C20.6883 33.5266 20.5312 33.684 20.3369 33.684V33.684ZM16.1536 32.9817H19.986V30.2565H16.1536V32.9817Z" fill="#B6F214"/>
<path d="M24.4299 34.8557H11.7104C11.5164 34.8557 11.3594 34.6984 11.3594 34.5048V33.3333C11.3594 33.1393 11.5167 32.9823 11.7104 32.9823H24.4299C24.6238 32.9823 24.7809 33.1397 24.7809 33.3333V34.5048C24.7809 34.6984 24.6235 34.8557 24.4299 34.8557ZM12.0614 34.1538H24.078V33.6843H12.0614V34.1538Z" fill="#B6F214"/>
<path d="M39.6493 4.59816H7.09811C6.90417 4.59816 6.74713 4.44079 6.74713 4.24718C6.74713 4.05324 6.9045 3.8962 7.09811 3.8962H39.6493C39.8432 3.8962 40.0002 4.05357 40.0002 4.24718C40.0006 4.44079 39.8432 4.59816 39.6496 4.59816H39.6493Z" fill="#B6F214"/>
<path d="M10.756 2.89564H9.51107C9.31714 2.89564 9.1601 2.73827 9.1601 2.54466C9.1601 2.35072 9.31746 2.19368 9.51107 2.19368H10.756C10.95 2.19368 11.107 2.35105 11.107 2.54466C11.1073 2.73827 10.95 2.89564 10.756 2.89564Z" fill="#B6F214"/>
<path d="M13.9289 2.89568H12.684C12.4901 2.89568 12.333 2.73831 12.333 2.5447C12.333 2.35077 12.4904 2.19373 12.684 2.19373H13.9289C14.1229 2.19373 14.2799 2.35109 14.2799 2.5447C14.2799 2.73831 14.1232 2.89568 13.9289 2.89568Z" fill="#B6F214"/>
<path d="M21.4118 21.9314H8.989C8.79506 21.9314 8.63802 21.774 8.63802 21.5804L8.6377 6.13272C8.6377 5.93878 8.79506 5.78174 8.98867 5.78174H21.4115C21.6054 5.78174 21.7625 5.93911 21.7625 6.13272V21.5796C21.7628 21.7735 21.6055 21.9309 21.4118 21.9309V21.9314ZM9.34005 21.2294H21.0608V6.48383H9.34005V21.2294Z" fill="#B6F214"/>
<path d="M10.2885 11.2906C10.1987 11.2906 10.1086 11.2563 10.0403 11.1877C9.90322 11.0506 9.90322 10.8283 10.0403 10.6911L13.5864 7.14508C13.7235 7.00796 13.9459 7.00796 14.083 7.14508C14.2201 7.28221 14.2201 7.50455 14.083 7.64168L10.5369 11.1877C10.4677 11.256 10.3783 11.2906 10.2885 11.2906H10.2885Z" fill="#B6F214"/>
<path d="M10.571 14.5537C10.4812 14.5537 10.3911 14.5194 10.3228 14.4508C10.1857 14.3137 10.1857 14.0913 10.3228 13.9542L16.8504 7.42661C16.9876 7.28949 17.2099 7.28949 17.347 7.42661C17.4841 7.56374 17.4841 7.78608 17.347 7.92321L10.8191 14.4508C10.7508 14.5191 10.6611 14.5537 10.5709 14.5537H10.571Z" fill="#B6F214"/>
</svg>
