<svg width="41" height="42" viewBox="0 0 41 42" fill="none" xmlns="http://www.w3.org/2000/svg">
<path d="M10.3822 24.3474C10.3822 30.1578 15.0817 34.8847 20.9195 34.8847C26.8171 34.8847 31.4603 30.0919 31.4603 24.3474C31.4603 18.5496 26.7628 13.8102 20.9195 13.8102C20.3047 13.8102 19.6937 13.8659 19.0935 13.9712C19.37 13.3346 19.3618 12.6004 19.0631 11.9615C21.5837 10.932 24.3654 10.7065 27.0785 10.9278C27.501 10.9633 27.794 10.4985 27.5638 10.1333V10.133L26.1356 7.8636C27.1372 7.0199 27.3798 5.5717 26.665 4.4362C25.9504 3.30062 24.5392 2.89275 23.3456 3.43119L21.9171 1.16149C21.9111 1.15211 21.9023 1.14556 21.896 1.13646C21.7925 0.993381 21.6272 0.912593 21.4511 0.923116C21.4435 0.9234 21.4361 0.921409 21.4281 0.921978C21.2298 0.941321 21.0623 1.06961 20.9909 1.2565C19.8383 4.26264 18.094 7.05971 15.4576 8.95008C15.1871 8.70402 14.8082 8.68155 14.5178 8.86474L12.4754 10.1505C12.109 10.3809 12.0001 10.8636 12.2302 11.2286L12.592 11.8035L11.6769 12.3798C11.3123 12.6096 11.2025 13.0932 11.432 13.4582L11.9432 14.2698C12.1716 14.6336 12.6529 14.7468 13.0213 14.5156L13.9367 13.9395L14.2985 14.5144C14.5289 14.8805 15.0131 14.9883 15.3766 14.7596L15.4842 14.6919L15.7791 15.1602C12.4444 17.0219 10.3818 20.4955 10.3818 24.3473L10.3822 24.3474ZM12.69 13.9886C12.6103 14.0384 12.5148 14.0094 12.4704 13.9385L11.9589 13.1269C11.9123 13.0524 11.9348 12.954 12.009 12.9071L12.9241 12.331L13.6051 13.4131L12.69 13.9886ZM20.6093 14.4591V19.7825C19.4106 19.7461 18.252 19.4992 17.156 19.046C17.672 17.271 18.787 14.7515 20.6093 14.4592V14.4591ZM27.6955 17.1154C26.9658 17.8004 26.1446 18.355 25.2545 18.7849C24.6933 16.8941 23.8843 15.4675 22.9311 14.6384C24.7226 15.0033 26.3628 15.8635 27.6955 17.1155V17.1154ZM28.1353 31.1444C27.3229 30.3786 26.4106 29.754 25.4261 29.2878C25.7856 27.8661 25.985 26.2791 26.0075 24.6585H30.83C30.7552 27.0904 29.8076 29.3717 28.1353 31.1444H28.1353ZM22.932 34.0564C23.8869 33.2258 24.697 31.7958 25.2579 29.9005C26.1409 30.3309 26.9627 30.8933 27.6963 31.5819C26.3425 32.8515 24.7154 33.6909 22.9319 34.0564H22.932ZM14.1431 31.583C14.877 30.8938 15.6994 30.3312 16.583 29.9005C17.1416 31.7953 17.95 33.2249 18.9044 34.0556C17.0896 33.6827 15.4508 32.8165 14.1431 31.5831V31.583ZM11.0121 24.6582H15.8314C15.8542 26.2827 16.0542 27.8699 16.4149 29.2874C15.4298 29.7539 14.5172 30.3789 13.7048 31.1449C12.0336 29.3714 11.0867 27.0897 11.0121 24.6582H11.0121ZM20.6092 20.405V24.0358H16.4539C16.4761 22.502 16.6607 21.0011 16.9935 19.6526C18.1421 20.1171 19.3554 20.3691 20.6093 20.405H20.6092ZM20.6092 34.2366C19.2162 34.0139 17.9251 32.3021 17.1562 29.6432C18.2411 29.1983 19.4065 28.9489 20.6092 28.9122V34.2366ZM21.2316 34.2361V28.9122C22.4347 28.9489 23.6 29.1986 24.6853 29.6438C23.9135 32.3003 22.6224 34.0116 21.2316 34.2361ZM21.2316 28.2898V24.6584H25.3847C25.3625 26.1905 25.1785 27.6896 24.8468 29.0371C23.709 28.5805 22.4895 28.3259 21.2316 28.2898H21.2316ZM21.2316 24.036V20.4052C22.483 20.3691 23.6956 20.1168 24.8451 19.6525C25.1779 21.0012 25.3625 22.5019 25.3847 24.036H21.2316ZM21.2316 19.7825V14.4597C22.6209 14.6838 23.9107 16.3926 24.6824 19.046C23.5856 19.4986 22.4275 19.7458 21.2316 19.7824V19.7825ZM20.6092 24.6584V28.2898C19.3514 28.3259 18.1316 28.5805 16.9938 29.0371C16.661 27.6933 16.4761 26.1942 16.4542 24.6584H20.6092ZM26.0074 24.036C25.9847 22.4135 25.7847 20.8239 25.424 19.4005C26.4171 18.9348 27.3265 18.315 28.1346 17.5535C29.807 19.3229 30.7547 21.603 30.8296 24.0361L26.0074 24.036ZM15.8314 24.036H11.012C11.0869 21.6039 12.0335 19.3242 13.7042 17.5537C14.5086 18.3115 15.4186 18.9311 16.4148 19.4001C16.0541 20.8233 15.8541 22.4131 15.8314 24.0359L15.8314 24.036ZM16.5835 18.7841C15.692 18.3522 14.8722 17.7981 14.1468 17.1183C15.4652 15.8818 17.0662 15.0206 18.9188 14.6398C17.7528 15.6522 17.017 17.3273 16.5835 18.7841ZM18.4984 12.2103C18.8 12.8406 18.7118 13.6013 18.264 14.1488C18.233 14.1568 17.9088 14.247 17.7808 14.2871L17.3117 13.5415L17.4192 13.4738C17.7281 13.2793 17.8456 12.9029 17.7503 12.5886C17.9805 12.4632 18.2416 12.3303 18.4984 12.2103L18.4984 12.2103ZM21.4995 1.66791C21.8937 2.294 19.8679 -0.924387 26.9275 10.2914C26.5153 10.261 26.11 10.2428 25.71 10.2337L21.0253 2.7906C21.19 2.4262 21.349 2.05299 21.4995 1.66813L21.4995 1.66791ZM26.1381 4.76849C26.6687 5.61074 26.5102 6.67947 25.8005 7.33173L23.681 3.96404C24.5762 3.60704 25.6079 3.92563 26.1382 4.76849H26.1381ZM20.7104 3.45887L24.9719 10.229C22.1091 10.2617 19.5846 10.8685 17.4429 12.0441L15.8178 9.4627C17.8042 8.03955 19.4435 6.02619 20.7108 3.45895L20.7104 3.45887ZM14.825 14.1833C14.8053 14.152 12.6278 10.6927 12.757 10.8975C12.7098 10.8218 12.7337 10.7237 12.8071 10.6779L14.8498 9.39188C14.9217 9.34636 15.021 9.36571 15.0694 9.44166C15.0404 9.39586 15.3575 9.90419 17.136 12.7286C17.1806 12.7989 17.1638 12.8973 17.0868 12.9462C17.0546 12.9664 15.0065 14.2567 15.0452 14.2325C14.9701 14.28 14.872 14.2573 14.825 14.1833L14.825 14.1833ZM16.7846 13.8732L17.1806 14.5024C16.891 14.6114 16.6062 14.7317 16.3297 14.8671L16.0106 14.3605L16.7846 13.8732Z" fill="#B6F214"/>
<path d="M27.6846 4.17264L27.3358 3.65692L27.9872 3.21629L28.336 3.73201L27.6846 4.17264Z" fill="#B6F214"/>
<path d="M28.7347 5.10083L28.7788 5.72152L27.9943 5.77727L27.9502 5.15658L28.7347 5.10083Z" fill="#B6F214"/>
<path d="M26.2112 2.05537L26.7713 2.32788L26.4271 3.03532L25.867 2.76281L26.2112 2.05537Z" fill="#B6F214"/>
<path d="M5.98896 41.03H35.853C38.6911 41.03 41 38.7213 41 35.8836C41 35.7115 40.8606 35.5724 40.6888 35.5724H39.2807V15.9973C39.2807 14.5403 38.0951 13.3546 36.6378 13.3546H33.036V13.9773H36.6378C37.7518 13.9773 38.658 14.8836 38.658 15.9975V35.5719H37.3692V16.0005C37.3692 15.5971 37.0409 15.2688 36.6378 15.2688L33.036 15.2685V15.8912H36.6378C36.6978 15.8912 36.7468 15.9401 36.7468 16.0004V35.5726H5.09716V16.0004C5.09716 15.9401 5.14609 15.8912 5.20611 15.8912H8.8048V15.2685H5.20611C4.80275 15.2685 4.47448 15.5968 4.47448 16.0002V35.5709L3.18277 35.5712V16.0005C3.18277 14.8848 4.09049 13.9771 5.20611 13.9771H8.8048V13.3544H5.20611C3.74714 13.3544 2.56008 14.5415 2.56008 16.0005V35.5727H1.15397C0.982153 35.5727 0.842773 35.7118 0.842773 35.8839C0.842489 38.7219 3.15143 41.0303 5.9892 41.0303L5.98896 41.03ZM26.1357 36.195L25.1426 37.8307L16.699 37.8304L15.7059 36.1947L26.1357 36.195ZM14.9773 36.195L16.2579 38.3037C16.3143 38.3964 16.4152 38.4533 16.5239 38.4533H25.3178C25.4265 38.4533 25.5274 38.3964 25.5838 38.3037L26.8644 36.195H40.3662C40.2058 38.545 38.2427 40.4076 35.8524 40.4076H5.98842C3.59842 40.4076 1.63538 38.545 1.47495 36.195H14.9773Z" fill="#B6F214"/>
<path d="M6.43252 39.5126C7.10072 39.5126 7.64434 38.969 7.64434 38.3007C7.64434 37.6325 7.10075 37.0886 6.43252 37.0886C5.76433 37.0886 5.2207 37.6325 5.2207 38.3007C5.2207 38.9692 5.7643 39.5126 6.43252 39.5126ZM6.43252 37.7114C6.76307 37.7114 7.02192 37.9705 7.02192 38.3008C7.02192 38.6313 6.76307 38.8899 6.43252 38.8899C6.10767 38.8899 5.84312 38.6256 5.84312 38.3008C5.84341 37.9759 6.10767 37.7114 6.43252 37.7114Z" fill="#B6F214"/>
<path d="M10.456 39.5126C11.1242 39.5126 11.6678 38.969 11.6678 38.3007C11.6678 37.6325 11.1242 37.0886 10.456 37.0886C9.78777 37.0886 9.24414 37.6325 9.24414 38.3007C9.24386 38.9692 9.78774 39.5126 10.456 39.5126ZM10.456 37.7114C10.7865 37.7114 11.0454 37.9705 11.0454 38.3008C11.0454 38.6313 10.7865 38.8899 10.456 38.8899C10.1311 38.8899 9.86656 38.6256 9.86656 38.3008C9.86656 37.9759 10.1308 37.7114 10.456 37.7114Z" fill="#B6F214"/>
</svg>
