<svg width="60" height="54" viewBox="0 0 60 54" fill="none" xmlns="http://www.w3.org/2000/svg">
<path d="M0.833008 3.64625C0.838345 2.88027 1.1448 2.14713 1.68617 1.60522C2.22754 1.0633 2.96037 0.756109 3.72634 0.75H56.273C57.8713 0.75 59.1663 2.04792 59.1663 3.64625V50.3538C59.161 51.1197 58.8545 51.8529 58.3132 52.3948C57.7718 52.9367 57.039 53.2439 56.273 53.25H3.72634C2.95871 53.2492 2.22279 52.9437 1.68027 52.4007C1.13775 51.8576 0.833007 51.1214 0.833008 50.3538V3.64625ZM25.9805 16.5438C25.805 16.4266 25.601 16.3593 25.3902 16.349C25.1794 16.3386 24.9698 16.3856 24.7836 16.485C24.5975 16.5844 24.4418 16.7324 24.3331 16.9132C24.2243 17.0941 24.1667 17.3011 24.1663 17.5121V36.4879C24.1667 36.6989 24.2243 36.9059 24.3331 37.0868C24.4418 37.2676 24.5975 37.4156 24.7836 37.515C24.9698 37.6144 25.1794 37.6614 25.3902 37.651C25.601 37.6407 25.805 37.5734 25.9805 37.4562L40.2109 27.9713C40.371 27.8648 40.5022 27.7204 40.593 27.5509C40.6837 27.3815 40.7312 27.1922 40.7312 27C40.7312 26.8078 40.6837 26.6185 40.593 26.4491C40.5022 26.2796 40.371 26.1352 40.2109 26.0287L25.9776 16.5438H25.9805Z" fill="#B6F214"/>
</svg>
